PathFileType	4	(x/y/z)	S08_M20_T15
DataRate	CameraRate	NumFrames	NumMarkers	Units	OrigDataRate	OrigDataStartFrame	OrigNumFrames
240	240	5	51	mm	240	1	509
Frame#	Time	Sternum			R.Acromium			L.Acromium			Top.Head			R.ASIS			L.ASIS			R.PSIS			L.PSIS			R.Great.Tro			L.Great.Tro			R.Iliac.Crest			L.Iliac.Crest			V.Sacral			R.Thigh.Upper.Post			R.Thigh.Lower.Ant			R.Thigh.Lower.Post			R.Thigh.Upper.Ant			R.Knee.Lat			R.Knee.Med			R.Shank.Upper.Post			R.Shank.Lower.Ant			R.Shank.Lower.Post			R.Shank.Upper.Ant			R.Ankle.Lat			R.Ankle.Med			R.Heel.Upper			R.Heel.Med			R.Heel.Lat			R.Toe.Lat			R.Toe.Med			R.Toe.Tip			L.Thigh.Upper.Post			L.Thigh.Lower.Ant			L.Thigh.Lower.Post			L.Thigh.Upper.Ant			L.Knee.Lat			L.Knee.Med			L.Shank.Upper.Post			L.Shank.Lower.Ant			L.Shank.Lower.Post			L.Shank.Upper.Ant			L.Ankle.Lat			L.Ankle.Med			L.Heel.Upper			L.Heel.Med			L.Heel.Lat			L.Toe.Lat			L.Toe.Med			L.Toe.Tip			Cervical.Spine			Back			
		X1	Y1	Z1	X2	Y2	Z2	X3	Y3	Z3	X4	Y4	Z4	X5	Y5	Z5	X6	Y6	Z6	X7	Y7	Z7	X8	Y8	Z8	X9	Y9	Z9	X10	Y10	Z10	X11	Y11	Z11	X12	Y12	Z12	X13	Y13	Z13	X14	Y14	Z14	X15	Y15	Z15	X16	Y16	Z16	X17	Y17	Z17	X18	Y18	Z18	X19	Y19	Z19	X20	Y20	Z20	X21	Y21	Z21	X22	Y22	Z22	X23	Y23	Z23	X24	Y24	Z24	X25	Y25	Z25	X26	Y26	Z26	X27	Y27	Z27	X28	Y28	Z28	X29	Y29	Z29	X30	Y30	Z30	X31	Y31	Z31	X32	Y32	Z32	X33	Y33	Z33	X34	Y34	Z34	X35	Y35	Z35	X36	Y36	Z36	X37	Y37	Z37	X38	Y38	Z38	X39	Y39	Z39	X40	Y40	Z40	X41	Y41	Z41	X42	Y42	Z42	X43	Y43	Z43	X44	Y44	Z44	X45	Y45	Z45	X46	Y46	Z46	X47	Y47	Z47	X48	Y48	Z48	X49	Y49	Z49	X50	Y50	Z50	X51	Y51	Z51	

1	0	NaN	NaN	NaN	-1756.2	1431.9	505.93	-1783.8	1459.3	169.58	-1744.8	1749.2	341.83	NaN	NaN	NaN	NaN	NaN	NaN	NaN	NaN	NaN	NaN	NaN	NaN	-1770.9	883.61	512.24	NaN	NaN	NaN	-1780.4	1057.8	485.52	-1741.7	1063.1	173.32	-1876.7	970.03	303.04	-1847.9	700.01	490.8	-1801.1	587.13	451.19	NaN	NaN	NaN	NaN	NaN	NaN	-1880.8	504.39	443.89	-1897.6	520.39	317.87	-2028.4	371.49	447.63	NaN	NaN	NaN	-2063.6	302.5	431.95	-1955.4	355.22	428	-2140	156.85	389.38	-2109.4	158.38	311.73	-2200.1	137.71	339.12	-2196.3	106.47	314.1	-2205.4	114.78	374.27	NaN	NaN	NaN	-2019.8	47.338	311.52	-1957.2	52.412	361.46	-1661.7	670.76	151.56	-1541.2	627.91	172.61	-1607.7	597.85	167.37	NaN	NaN	NaN	-1551.4	519.77	182.53	-1538.4	519.26	307.77	-1518.6	330.55	179.6	-1405.9	290.14	188.12	-1480	267.8	189.67	-1454.3	350.07	181.19	-1377.6	119.2	201.97	-1359.9	140.64	285.39	NaN	NaN	NaN	NaN	NaN	NaN	-1382.1	45.222	221.83	-1234	134.85	179.9	-1219.1	156.7	290.5	-1180.3	206.19	238.31	-1835.3	1494.3	335.37	-1889.2	1209.3	340.92
2	0.0041667	NaN	NaN	NaN	-1750.6	1431.5	505.46	-1778.6	1458.9	169.14	-1739.9	1748.7	341.46	NaN	NaN	NaN	NaN	NaN	NaN	NaN	NaN	NaN	NaN	NaN	NaN	-1765.5	883.26	511.75	NaN	NaN	NaN	-1774.7	1057.3	485.11	-1735.6	1062.7	172.92	-1870.8	969.66	302.46	-1843.9	700.41	489.99	-1796.9	587.03	451.24	NaN	NaN	NaN	NaN	NaN	NaN	-1876.6	504.49	443.97	-1892.5	520.07	317.79	-2024.7	372.36	447.55	NaN	NaN	NaN	-2060.4	303.74	431.84	-1952.1	355.71	428.13	-2138	158.59	389.53	-2107.1	159.88	311.96	-2198.1	140.44	339.1	-2194.6	109.23	313.97	-2203.8	117.45	374.16	NaN	NaN	NaN	-2019.4	47.375	311.62	-1957.2	52.382	361.6	-1655.4	670.47	151.39	-1535	627.67	172.74	-1601.6	597.57	167.37	NaN	NaN	NaN	-1544.9	519.23	182.87	-1532.7	518.79	307.83	-1513.9	329.91	179.62	-1401.7	288.81	188.31	-1476.5	266.71	190.03	-1449.6	348.97	181.43	-1374.8	117.75	202.02	-1356.8	138.58	285.66	NaN	NaN	NaN	NaN	NaN	NaN	-1380.5	44.229	221.77	-1231.4	132.23	180.2	-1216.3	153.73	290.99	-1177	203.02	238.95	-1830	1493.8	334.99	-1883.6	1208.7	340.57
3	0.0083333	NaN	NaN	NaN	-1744.7	1431	504.96	-1773.2	1458.4	168.67	-1734.9	1748.3	341.08	NaN	NaN	NaN	NaN	NaN	NaN	NaN	NaN	NaN	NaN	NaN	NaN	-1760	882.89	511.25	NaN	NaN	NaN	-1768.7	1056.8	484.68	-1729.3	1062.3	172.5	-1864.6	969.28	301.85	-1839.7	700.79	489.17	-1792.4	586.91	451.32	NaN	NaN	NaN	NaN	NaN	NaN	-1872.2	504.57	444.05	-1887.3	519.74	317.71	-2020.6	373.26	447.47	NaN	NaN	NaN	-2057.1	305.03	431.71	-1948.6	356.22	428.26	-2135.9	160.43	389.67	-2104.8	161.43	312.19	-2196	143.3	339.07	-2192.7	112.13	313.84	-2202	120.26	374.03	NaN	NaN	NaN	-2019	47.412	311.72	-1957.1	52.354	361.74	-1648.9	670.18	151.23	-1528.5	627.4	172.89	-1595.4	597.27	167.37	NaN	NaN	NaN	-1538.2	518.67	183.21	-1526.7	518.31	307.89	-1509.1	329.26	179.65	-1397.4	287.45	188.49	-1472.8	265.59	190.41	-1444.7	347.83	181.69	-1372	116.24	202.06	-1353.6	136.46	285.95	NaN	NaN	NaN	-1347	37.284	279.89	-1378.7	43.246	221.74	-1228.8	129.47	180.53	-1213.3	150.6	291.5	-1173.5	199.67	239.63	-1824.6	1493.2	334.59	-1877.7	1208.1	340.21
4	0.0125	NaN	NaN	NaN	-1738.7	1430.6	504.44	-1767.6	1458	168.18	-1729.6	1747.9	340.68	NaN	NaN	NaN	NaN	NaN	NaN	NaN	NaN	NaN	NaN	NaN	NaN	-1754.2	882.5	510.72	NaN	NaN	NaN	-1762.5	1056.2	484.24	-1722.8	1061.9	172.06	-1858.2	968.91	301.22	-1835.3	701.13	488.35	-1787.8	586.77	451.41	NaN	NaN	NaN	NaN	NaN	NaN	-1867.6	504.65	444.12	-1881.7	519.39	317.62	-2016.3	374.17	447.39	NaN	NaN	NaN	-2053.6	306.38	431.58	-1944.9	356.75	428.39	-2133.6	162.34	389.81	-2102.2	163.03	312.43	-2193.7	146.29	339.03	-2190.8	115.17	313.69	-2200.1	123.22	373.89	NaN	NaN	NaN	-2018.6	47.449	311.83	-1957.1	52.327	361.86	-1642.1	669.9	151.07	-1521.9	627.11	173.04	-1588.9	596.97	167.35	NaN	NaN	NaN	-1531.4	518.09	183.53	-1520.5	517.81	307.96	-1504.2	328.59	179.67	-1392.8	286.09	188.67	-1469.1	264.43	190.8	-1439.7	346.67	181.96	-1369	114.7	202.1	-1350.3	134.31	286.25	-1395.4	57.77	252.87	-1345.5	36.263	280	-1376.9	42.297	221.73	-1226.1	126.59	180.88	-1210.3	147.32	292.05	-1170	196.15	240.35	-1818.9	1492.7	334.17	-1871.7	1207.5	339.83
5	0.016667	NaN	NaN	NaN	-1732.5	1430.1	503.89	-1761.8	1457.5	167.66	-1724.2	1747.5	340.27	NaN	NaN	NaN	NaN	NaN	NaN	NaN	NaN	NaN	NaN	NaN	NaN	-1748.2	882.1	510.17	NaN	NaN	NaN	-1756.1	1055.7	483.79	-1716	1061.5	171.61	-1851.6	968.54	300.56	-1830.5	701.42	487.53	-1783	586.59	451.53	NaN	NaN	NaN	NaN	NaN	NaN	-1862.7	504.7	444.2	-1875.9	519.01	317.53	-2011.8	375.08	447.32	NaN	NaN	NaN	-2049.9	307.77	431.43	-1941	357.29	428.52	-2131.2	164.33	389.95	-2099.5	164.67	312.67	-2191.2	149.38	338.97	-2188.7	118.34	313.53	-2198.1	126.32	373.73	NaN	NaN	NaN	-2018.1	47.487	311.93	-1957.1	52.304	361.98	-1635.2	669.63	150.92	-1515.1	626.78	173.21	-1582.3	596.66	167.33	NaN	NaN	NaN	-1524.5	517.5	183.83	-1514.2	517.29	308.02	-1499.1	327.93	179.69	-1388.2	284.72	188.83	-1465.2	263.24	191.2	-1434.6	345.48	182.24	-1366.1	113.15	202.13	-1347	132.15	286.57	-1393.7	57.713	252.9	-1343.9	35.245	280.12	-1375	41.401	221.74	-1223.4	123.61	181.26	-1207.2	143.89	292.62	-1166.4	192.47	241.1	-1813	1492.1	333.73	-1865.4	1206.8	339.45
